<?xml version="1.0" encoding="utf-8"?>
<!-- Generator: Adobe Illustrator 21.0.2, SVG Export Plug-In . SVG Version: 6.00 Build 0)  -->
<svg version="1.1" xmlns="http://www.w3.org/2000/svg" xmlns:xlink="http://www.w3.org/1999/xlink" x="0px" y="0px"
	 viewBox="0 0 112 86" style="enable-background:new 0 0 112 86;" xml:space="preserve">
<style type="text/css">
	.st0{display:none;}
	.st1{display:inline;fill:#4D4D4D;}
	.st2{display:inline;}
	.st3{fill:#4D4D4D;}
	.st4{display:inline;fill:#C3AD98;}
	.st5{display:inline;fill:#EBB669;}
	.st6{fill:#727171;}
	.st7{fill:#F19EC2;}
</style>
<g id="レイヤー_1" class="st0">
	<polygon class="st1" points="63.7,22.1 73.6,7.8 81.1,13.4 70,26.3 	"/>
	<g class="st2">
		<g>
			<path class="st3" d="M-31,11c2.1,0,3.9,0.8,5.4,2.3c1.5,1.5,2.2,3.4,2.2,5.5c0,2.1-0.7,3.9-2.2,5.4c-1.5,1.5-3.2,2.3-5.3,2.3
				c-2.1,0-3.9-0.8-5.4-2.3c-1.5-1.5-2.2-3.4-2.2-5.6c0-2.1,0.7-3.9,2.2-5.4C-34.8,11.7-33.1,11-31,11z M-37.1,30.6h12v47.7h-12
				V30.6z"/>
			<path class="st3" d="M20.9,12.2h12v66.1h-12v-5.1c-2.3,2.2-4.7,3.8-7,4.8c-2.4,1-4.9,1.5-7.6,1.5c-6.2,0-11.5-2.4-16-7.2
				s-6.7-10.7-6.7-17.8c0-7.4,2.2-13.4,6.5-18.1c4.3-4.7,9.6-7.1,15.8-7.1c2.9,0,5.5,0.5,8.1,1.6c2.5,1.1,4.8,2.7,7,4.8V12.2z
				 M8.4,40.4c-3.7,0-6.8,1.3-9.2,3.9c-2.5,2.6-3.7,6-3.7,10.1c0,4.1,1.2,7.5,3.7,10.2s5.6,4,9.2,4c3.8,0,6.9-1.3,9.4-3.9
				c2.5-2.6,3.7-6,3.7-10.3c0-4.2-1.2-7.5-3.7-10.1C15.3,41.7,12.2,40.4,8.4,40.4z"/>
			<path class="st3" d="M92.7,57.8H54.3c0.6,3.4,2,6.2,4.4,8.2c2.4,2,5.5,3,9.2,3c4.5,0,8.3-1.6,11.5-4.7L89.5,69
				c-2.5,3.6-5.5,6.2-9,8c-3.5,1.7-7.7,2.6-12.5,2.6c-7.5,0-13.6-2.4-18.3-7.1c-4.7-4.7-7-10.6-7-17.7c0-7.3,2.3-13.3,7-18.1
				c4.7-4.8,10.6-7.2,17.6-7.2c7.5,0,13.6,2.4,18.3,7.2c4.7,4.8,7.1,11.1,7.1,19L92.7,57.8z M80.8,48.5c-0.8-2.6-2.3-4.8-4.7-6.4
				c-2.3-1.6-5-2.5-8.1-2.5c-3.3,0-6.3,0.9-8.8,2.8c-1.6,1.2-3,3.2-4.4,6.1H80.8z"/>
			<path class="st3" d="M137.7,30.6h12v47.7h-12v-5.1c-2.3,2.2-4.7,3.8-7,4.8c-2.4,1-4.9,1.5-7.6,1.5c-6.2,0-11.5-2.4-16-7.2
				c-4.5-4.8-6.7-10.7-6.7-17.8c0-7.4,2.2-13.4,6.5-18.1s9.6-7.1,15.8-7.1c2.9,0,5.5,0.5,8.1,1.6c2.5,1.1,4.8,2.7,7,4.8V30.6z
				 M125.1,40.4c-3.7,0-6.8,1.3-9.2,3.9c-2.5,2.6-3.7,6-3.7,10.1c0,4.1,1.2,7.5,3.7,10.2s5.6,4,9.2,4c3.8,0,6.9-1.3,9.4-3.9
				c2.5-2.6,3.7-6,3.7-10.3c0-4.2-1.2-7.5-3.7-10.1C132.1,41.7,128.9,40.4,125.1,40.4z"/>
		</g>
	</g>
</g>
<g id="レイヤー_2" class="st0">
	<path class="st4" d="M71.9,37.7c-2.9,2.4-5.1,3.6-6.4,3.6c-1.8,0-2.8-1.3-3-4c-3.2,2.6-5.7,4-7.5,4c-1.8,0-3.2-0.4-4.2-1.3
		c-1.2-0.9-1.8-2.3-1.8-4c0-2.3,1.2-4,3.5-5c0.8-0.4,2.5-0.9,5-1.7c2.1-0.7,3.7-1.3,4.9-2.1v-2.2c0-1.9-0.4-3.3-1.1-4.1
		c-1.1-1.2-2.3-1.9-3.6-1.9c-0.9,0-1.8,0.3-2.6,0.9c-0.9,0.7-1.4,1.4-1.4,2.3c0,0.3,0.1,0.7,0.3,1.2l-4.4,2.2
		c-0.1-0.4-0.2-0.7-0.2-0.9c0-0.9,0.7-2.1,2.1-3.5c1.1-1.1,2.2-2,3.3-2.7c1.5-0.9,2.9-1.4,4.2-1.4c2.9,0,5.2,1.2,6.8,3.4
		c0.7,0.9,1,2.8,1,5.6v5.8c0,3.7,0.2,5.7,0.7,6c0.2,0.2,0.5,0.3,1,0.3c1,0,2-0.5,3.2-1.4L71.9,37.7z M62.4,36.1v-7.7
		c-0.8,0.5-2.1,1.1-3.8,1.8c-2,0.8-3.2,1.4-3.6,1.7c-1.2,0.8-1.8,1.9-1.8,3.3c0,1.1,0.4,2,1.1,2.7C55,38.6,55.9,39,57,39
		C57.9,39,59.7,38,62.4,36.1"/>
	<path class="st4" d="M57.3,52.3c-1.1,0-2.4,0.1-3.3,0.1c-4.4,0-6.6,0.2-9.3-1.8c-2.2-1.6-16.2-16.4-18-17.6c-2.4,0.1-1.8,0-2.7,0
		c-1,0-2.2,0-3.7-0.1v12.5c0,2.8,0.8,4.5,2.4,5.1c0.8,0.3,2,0.5,3.4,0.5h1.7v1.4H6.8V51h1.3c2.3,0,3.9-0.4,4.7-1.3
		c0.8-0.9,1.2-2.5,1.2-4.8V13.8c0-2.2-0.4-3.7-1.2-4.6c-0.8-0.9-2.2-1.3-4.4-1.3H6.8V6.5c1,0,3.1-0.1,6.5-0.3c0.8,0,1.8-0.1,2.8-0.1
		c3.1-0.1,6.2-0.2,9.3-0.2C32,5.8,37,7,40.4,9.5c3.2,2.3,4.8,5.5,4.8,9.4c0,2.9-0.9,5.5-2.8,7.6c-1.8,2-8.1,5.4-8.1,5.4
		s12.9,15,17.4,18c1.4,1,3.6,1,5.5,1.1V52.3z M38.3,19.4c0-5.2-1.9-8.8-5.8-10.6c-2.1-1-5-1.5-8.6-1.5c-1.6,0-2.8,0-3.7,0.1v24.2
		c0.8,0.1,2.4,0.2,4.6,0.2C33.7,31.7,38.3,27.6,38.3,19.4"/>
	<path class="st4" d="M106.9,26.6c-1.9,0.2-3.4,1.1-4.5,2.8c-0.6,0.9-1.1,1.9-1.6,3.1l-15.9,41c-2.1,5.3-4.3,7.9-6.5,7.9
		c-0.8,0-1.5-0.2-2.1-0.7c-0.6-0.5-1-1.1-1-1.9c0-0.9,0.4-1.6,1.2-2c0.3-0.2,1.1-0.5,2.4-0.9c1.3-0.4,2.1-0.8,2.6-1.3
		c1-1,8.1-19.5,8.1-19.5L78.1,31c-0.7-1.6-1.5-2.6-2.2-3.2c-0.9-0.7-2.1-1.1-3.6-1.2v-1.3h14.8v1.3c-2.2,0-3.5,0.4-3.9,1
		c-0.5,0.7-0.3,1.8,0.4,3.5l8.4,18l6.3-15.6c0.7-1.7,1-3.1,1-4.1c0-0.6-0.1-1-0.3-1.3c-0.6-0.9-2-1.4-4.3-1.5v-1.3h12.2V26.6z"/>
	<path class="st5" d="M79.5,52.2c0.4-0.1,1-0.2,1.5-1c0.5-0.7,0.5-1.8-0.1-2.6c-0.6-0.8-2-1.2-3.6-0.1c-1.7,1.1-3.1,2.8-4.5,3.5
		c0.7-1.4,2.4-2.8,3.5-4.5c1.1-1.6,0.7-3-0.1-3.6c-0.8-0.6-1.8-0.6-2.5-0.1c-0.7,0.5-0.9,1.1-1,1.5c-0.1-0.4-0.2-1-1-1.5
		c-0.7-0.5-1.8-0.5-2.5,0.1c-0.8,0.6-1.2,2-0.1,3.6c1.1,1.7,2.8,3.1,3.5,4.5c-1.4-0.7-2.8-2.4-4.4-3.5c-1.6-1.1-3-0.7-3.6,0.1
		c-0.6,0.8-0.6,1.8-0.1,2.5c0.5,0.7,1.1,0.9,1.5,1c-0.4,0.1-1,0.2-1.5,1c-0.5,0.7-0.5,1.8,0.1,2.5c0.6,0.8,2,1.2,3.6,0.1
		c1.6-1.1,3.1-2.8,4.4-3.5c-0.7,1.4-2.4,2.8-3.5,4.5c-1.1,1.6-0.7,3,0.1,3.6c0.8,0.6,1.8,0.6,2.6,0.1c0.7-0.5,0.9-1.1,1-1.5
		c0.1,0.4,0.2,1,1,1.5c0.7,0.5,1.8,0.5,2.5-0.1c0.8-0.6,1.2-2,0.1-3.6c-1.1-1.7-2.8-3.1-3.5-4.5c1.4,0.7,2.8,2.4,4.5,3.5
		c1.6,1.1,3,0.7,3.6-0.1c0.6-0.8,0.6-1.8,0.1-2.5C80.5,52.4,79.9,52.3,79.5,52.2"/>
</g>
<g id="レイヤー_3">
	<path class="st6" d="M72,38c-2.9,2.4-5.1,3.6-6.4,3.6c-1.8,0-2.8-1.3-3-4c-3.2,2.6-5.7,4-7.5,4c-1.7,0-3.2-0.4-4.2-1.3
		c-1.2-0.9-1.8-2.3-1.8-4c0-2.3,1.2-4,3.5-5c0.8-0.4,2.5-0.9,5-1.7c2.1-0.7,3.7-1.3,4.9-2.1v-2.2c0-1.9-0.4-3.3-1.1-4.1
		c-1.1-1.2-2.3-1.9-3.6-1.9c-0.9,0-1.8,0.3-2.6,0.9c-0.9,0.7-1.4,1.4-1.4,2.3c0,0.3,0.1,0.7,0.3,1.2l-4.4,2.2
		c-0.1-0.4-0.2-0.7-0.2-0.9c0-0.9,0.7-2.1,2.1-3.5c1.1-1.1,2.2-2,3.3-2.7c1.5-0.9,2.9-1.4,4.2-1.4c2.9,0,5.2,1.2,6.8,3.4
		c0.7,0.9,1,2.8,1,5.6v5.8c0,3.7,0.2,5.7,0.7,6c0.2,0.2,0.5,0.3,1,0.3c1,0,2-0.5,3.2-1.4L72,38z M62.5,36.4v-7.7
		c-0.8,0.5-2.1,1.1-3.8,1.8c-2,0.8-3.2,1.4-3.6,1.7c-1.2,0.8-1.8,1.9-1.8,3.3c0,1.1,0.4,2,1.1,2.7c0.7,0.7,1.6,1.1,2.7,1.1
		C58,39.3,59.8,38.3,62.5,36.4z"/>
	<path class="st6" d="M57.3,52.7c-1.1,0-2.4,0.1-3.3,0.1c-4.4,0-6.6,0.2-9.3-1.8c-2.2-1.6-16.2-16.4-18-17.6c-2.4,0.1-1.8,0-2.7,0
		c-1,0-2.2,0-3.7-0.1v12.5c0,2.8,0.8,4.5,2.4,5.1c0.8,0.3,2,0.5,3.4,0.5h1.7v1.4H6.9v-1.4h1.3c2.3,0,3.9-0.4,4.7-1.3
		c0.8-0.9,1.2-2.5,1.2-4.8V14.1c0-2.2-0.4-3.7-1.2-4.6c-0.8-0.9-2.2-1.3-4.4-1.3H6.9V6.8c1,0,3.1-0.1,6.5-0.3c0.8,0,1.8-0.1,2.8-0.1
		c3.1-0.1,6.2-0.2,9.3-0.2c6.6,0,11.5,1.2,15,3.7c3.2,2.3,4.8,5.5,4.8,9.4c0,2.9-0.9,5.5-2.8,7.6c-1.8,2-8.1,5.4-8.1,5.4
		s12.9,15,17.4,18c1.4,1,3.6,1,5.5,1.1V52.7z M38.3,19.7c0-5.2-1.9-8.8-5.8-10.6c-2.1-1-5-1.5-8.6-1.5c-1.6,0-2.8,0-3.7,0.1v24.2
		C21,32,22.5,32,24.8,32C33.8,32,38.3,27.9,38.3,19.7z"/>
	<path class="st6" d="M106.9,26.9c-1.9,0.2-3.4,1.1-4.5,2.8c-0.6,0.9-1.1,1.9-1.6,3.1l-15.9,41c-2.1,5.3-4.3,7.9-6.5,7.9
		c-0.8,0-1.5-0.2-2.1-0.7c-0.6-0.5-1-1.1-1-1.9c0-0.9,0.4-1.6,1.2-2c0.3-0.2,1.1-0.5,2.4-0.9c1.3-0.4,2.1-0.8,2.6-1.3
		c1-1,8.1-19.5,8.1-19.5L78.2,31.3c-0.7-1.6-1.5-2.6-2.2-3.2c-0.9-0.7-2.1-1.1-3.6-1.2v-1.3h14.8v1.3c-2.2,0-3.5,0.4-3.9,1
		c-0.5,0.7-0.3,1.8,0.4,3.5l8.4,18l6.3-15.6c0.7-1.7,1-3.1,1-4.1c0-0.6-0.1-1-0.3-1.3c-0.6-0.9-2-1.4-4.3-1.5v-1.3h12.2V26.9z"/>
	<path class="st7" d="M79.6,52.5c0.4-0.1,1-0.2,1.5-1c0.5-0.7,0.5-1.8-0.1-2.6c-0.6-0.8-2-1.2-3.6-0.1c-1.7,1.1-3.1,2.8-4.5,3.5
		c0.7-1.4,2.4-2.8,3.5-4.5c1.1-1.6,0.7-3-0.1-3.6c-0.8-0.6-1.8-0.6-2.5-0.1c-0.7,0.5-0.9,1.1-1,1.5c-0.1-0.4-0.2-1-1-1.5
		c-0.7-0.5-1.8-0.5-2.5,0.1c-0.8,0.6-1.2,2-0.1,3.6c1.1,1.7,2.8,3.1,3.5,4.5c-1.4-0.7-2.8-2.4-4.4-3.5c-1.6-1.1-3-0.7-3.6,0.1
		c-0.6,0.8-0.6,1.8-0.1,2.5c0.5,0.7,1.1,0.9,1.5,1c-0.4,0.1-1,0.2-1.5,1c-0.5,0.7-0.5,1.8,0.1,2.5c0.6,0.8,2,1.2,3.6,0.1
		c1.6-1.1,3.1-2.8,4.4-3.5c-0.7,1.4-2.4,2.8-3.5,4.5c-1.1,1.6-0.7,3,0.1,3.6c0.8,0.6,1.8,0.6,2.6,0.1c0.7-0.5,0.9-1.1,1-1.5
		c0.1,0.4,0.2,1,1,1.5c0.7,0.5,1.8,0.5,2.5-0.1c0.8-0.6,1.2-2,0.1-3.6c-1.1-1.7-2.8-3.1-3.5-4.5c1.4,0.7,2.8,2.4,4.5,3.5
		c1.6,1.1,3,0.7,3.6-0.1c0.6-0.8,0.6-1.8,0.1-2.5C80.6,52.8,80,52.6,79.6,52.5z"/>
	<g>
		<path class="st7" d="M14.9,66.2c-0.7,0.2-1.3,0.6-1.5,0.7c0,0-0.1,0-0.1-0.1c0-0.1,0.5-0.6,0.7-0.7c-2.5,0-3.9,1-3.8,1.4
			c0,0.2,0,0.5,3.3,0.4c0.1,0,0.7,0,0.7,0.2c0,0.2-0.2,0.6-0.4,0.7c-0.2,0.1-0.8,0.2-1,0.3c-2.7,0.4-3.8,1.6-3.8,2
			c0,0.2,0.3,0.3,0.9,0.3c0.6,0,1.4,0,2.5-0.4c0.7-0.2,1.4-0.7,2.1-1.1c0.1,0.7,0,1.2-0.6,1.7c-0.4,0.3-1.7,1.2-3.8,1.2
			c-0.5,0-1-0.1-1.4-0.2c-0.4-0.1-0.7-0.8-0.7-1.2c0-0.7,0.9-2,4-2.8v0C9.5,68.4,9,67.8,9,67.2c0-1,1.5-2.6,4.9-2.6
			c0.3,0,1.3,0,1.5,0.3l0,0.4C15.5,66,15.5,66,14.9,66.2z"/>
		<path class="st7" d="M16.7,73.5c-0.1,0.1-0.4,0.5-0.6,0.5c-0.2,0-0.3-0.5-0.3-0.7c0-0.2,0.2-0.5,0.3-0.6l1.4-2.3l0,0
			c-0.9,0.7-1.6,1.3-1.7,1.3c-0.3,0-0.8-0.5-0.8-1.2c0-1.2,1.7-2.6,2-2.6c0.2,0,0.4,0.3,0.4,0.5c0,0.4-1.2,1.5-1.5,1.7
			c-0.1,0.2-0.2,0.4-0.2,0.6c0.6-0.1,1.1-0.5,1.5-0.9c1.1-1,1.7-1.7,1.9-1.7c0.2,0,0.3,0.4,0.3,0.5c0,0.3-0.3,0.7-0.4,0.9l-1.5,2.3
			l0,0l2.3-2l0.1,0.4L16.7,73.5z"/>
		<path class="st7" d="M23.4,70.2C22.8,71,21.7,72,20.6,72c-0.8,0-1.1-0.7-1.1-1.4c0-1.4,1.5-2.8,2.8-2.7c0.3,0,0.7,0.1,0.7,0.5
			c0,0.5-0.5,1.3-2.5,1.9l0,0.2c0,0.4,0.3,0.5,0.6,0.5c0.7,0,1.6-0.8,2.2-1.2L23.4,70.2z M22.2,68.6c0-0.1-0.1-0.1-0.1-0.1
			c-0.5,0.1-1.1,0.6-1.4,1.3C21.5,69.5,22.2,68.7,22.2,68.6z"/>
		<path class="st7" d="M26.6,70.2c-0.6,0.6-1.5,1.6-2.4,1.6c-0.8,0-0.9-0.7-0.9-1.4c0-1.1,0.5-2.3,1.1-3.1c0.9-1.1,1.9-2.1,2.2-2.1
			c0.2,0,0.2,0.2,0.2,0.4c-0.1,1-0.3,1.9-2.6,4.1c-0.1,0.2-0.1,0.5-0.1,0.7c0.1,0.2,0.2,0.4,0.5,0.4c0.6,0,1.4-0.7,1.8-1L26.6,70.2z
			 M24.5,68.9c0.7-0.7,1.4-1.7,1.6-2.3C25.5,66.8,24.9,67.8,24.5,68.9L24.5,68.9z"/>
		<path class="st7" d="M28.1,71.1c-0.2,0.2-0.9,0.7-1.1,0.7c-0.3,0-0.9-0.7-0.9-1.2c0-1.3,2.7-2.6,3.9-2.7c0.5,0,0.7,0.4,0.7,0.5
			c0,0.1-0.3,0.2-0.4,0.3c0.2,0.1,0.3,0.2,0.3,0.4c0,0.3-0.9,1.1-0.9,1.5c0,0.2,0.2,0.2,0.3,0.2c0.4,0,1-0.5,1.5-0.8l0.1,0.4
			c-0.4,0.5-1.8,1.6-2.3,1.6c-0.3,0-0.5-0.2-0.5-0.6c0-0.3,0.2-0.9,0.4-1.2l0,0L28.1,71.1z M26.9,70.8c0,0.1,0.1,0.2,0.2,0.2
			c0.2,0,0.5,0,2.6-2.1l0,0C27.2,69.7,26.9,70.3,26.9,70.8z"/>
		<path class="st7" d="M35.1,70l0.1,0.4c-0.6,0.6-1.8,1.6-2.6,1.5c-0.7,0-1.5-0.4-1.7-1.2c-0.1,0.1-0.1,0.1-0.2,0.1
			c-0.1,0-0.2-0.1-0.2-0.2c0-0.1,0.2-0.3,0.2-0.4l2.3-2.1c0-0.3,0.2-0.7,0.6-0.7c0.3,0,0.4,0.1,0.4,0.4c0,0.4,0.2,0.7,0.2,1.2
			c0,0.9-0.7,1.5-1.4,1.9c0.7,0.1,1.1-0.2,1.6-0.6L35.1,70z M31.6,70.2c0.4,0,0.6,0.3,0.8,0.6c0.6-0.4,0.8-0.6,0.8-1.2
			c0-0.2-0.1-0.5-0.1-0.9L31.6,70.2z"/>
		<path class="st7" d="M35.9,70.5c0.5-0.4,2.4-2.1,3-2.1c0.2,0,0.5,0.3,0.5,0.5c0,0.2-0.4,0.7-0.5,0.8c-0.6,0.8-0.6,0.8-0.6,0.9
			c0,0.1,0.1,0.2,0.2,0.2c0.3,0,1.1-0.6,1.4-0.8l0.1,0.4c-0.5,0.4-1.7,1.4-2.3,1.4c-0.3,0-0.5-0.3-0.5-0.6c0-0.7,0.7-1.4,1.1-1.9
			l0,0c-1.8,1.2-2.3,2.3-2.6,2.3c-0.4,0-0.4-0.8-0.4-1.1c0-0.7,0.3-1.2,0.6-1.8c1.2-2,3.3-3.8,3.6-3.8c0.2,0,0.4,0.1,0.4,0.3
			c0,0.7-3.3,4.1-4,4.8V70.5z"/>
		<path class="st7" d="M48.7,68.2c1.1,0.2,1.5,0.8,1.5,1.3c0,2.1-3.6,2.4-5.1,2.4c-0.4,0-1.7,0-1.7-0.6c0-0.2,0.4-0.8,0.5-0.9
			c0.1-0.1,0.7-0.3,0.9-0.3c0.1,0,0.1,0,0.1,0.1c0,0.1-0.1,0.2-0.2,0.2c-0.1,0-0.1,0.1-0.2,0.2v0c3.7,0.1,4.7-0.9,4.7-1.1
			c0-0.5-2.9-0.9-3.4-1c-0.5-0.1-1.1-0.2-1.1-0.9c0-0.3,0.2-1.1,0.3-1.4c0.3-0.5,2.2-1.5,4.5-1.5c0.4,0,0.9,0.1,1.3,0.1
			c0.2,0.1,0.3,0.1,0.3,0.3c0,0.8-0.3,0.9-0.9,1.2c-0.4,0.2-0.5,0.2-0.9,0.5c-0.1,0-0.2,0.1-0.3,0.1c-0.1,0-0.2-0.1-0.2-0.2
			c0,0,0.2-0.3,0.8-0.7l0,0c-2.7,0.1-3.8,1.1-3.8,1.3C45.9,67.5,45.8,67.6,48.7,68.2z"/>
		<path class="st7" d="M52.4,71.1c-0.2,0.2-0.9,0.7-1.1,0.7c-0.3,0-0.9-0.7-0.9-1.2c0-1.3,2.7-2.6,3.9-2.7c0.5,0,0.7,0.4,0.7,0.5
			c0,0.1-0.3,0.2-0.4,0.3c0.2,0.1,0.3,0.2,0.3,0.4c0,0.3-0.9,1.1-0.9,1.5c0,0.2,0.2,0.2,0.3,0.2c0.4,0,1-0.5,1.5-0.8l0.1,0.4
			C55.4,70.9,54,72,53.5,72c-0.3,0-0.5-0.2-0.5-0.6c0-0.3,0.2-0.9,0.4-1.2l0,0L52.4,71.1z M51.2,70.8c0,0.1,0.1,0.2,0.2,0.2
			c0.2,0,0.5,0,2.6-2.1l0,0C51.5,69.7,51.2,70.3,51.2,70.8z"/>
		<path class="st7" d="M59.1,70.2c-0.6,0.6-1.5,1.6-2.4,1.6c-0.8,0-0.9-0.7-0.9-1.4c0-1.1,0.5-2.3,1.1-3.1c0.9-1.1,1.9-2.1,2.2-2.1
			c0.2,0,0.2,0.2,0.2,0.4c-0.1,1-0.3,1.9-2.6,4.1c-0.1,0.2-0.1,0.5-0.1,0.7c0.1,0.2,0.2,0.4,0.5,0.4c0.6,0,1.4-0.7,1.8-1L59.1,70.2z
			 M57,68.9c0.7-0.7,1.4-1.7,1.6-2.3C58,66.8,57.4,67.8,57,68.9L57,68.9z"/>
		<path class="st7" d="M63.2,70.2c-0.5,0.6-0.9,0.8-1.7,0.8c-0.4,0.4-0.9,0.8-1.6,0.8c-0.5,0-1-0.5-1.1-1.5c0-0.8,0.4-1.3,0.9-1.7
			c0.6-0.5,1.3-0.7,1.9-0.8c0.2,0,0.6,0.1,0.6,0.4c0,0.2-0.1,0.2-0.2,0.3c0.3,0.1,0.4,0.3,0.4,0.6c0,0.5-0.2,0.8-0.4,1.2
			c0.5,0.1,0.7-0.3,1.1-0.6L63.2,70.2z M60,69.7c-0.2,0.2-0.4,0.6-0.4,1c0,0.3,0.2,0.4,0.5,0.4c0.3,0,0.6-0.2,0.8-0.4
			c-0.1-0.2-0.1-0.3-0.1-0.5c0-0.5,0.5-1.2,0.4-1.2C60.8,69.2,60.3,69.4,60,69.7z"/>
		<path class="st7" d="M67.9,69.7l0.1,0.5c-0.6,0.5-1.6,1.8-2.4,1.8c-0.4,0-0.6-0.3-0.6-0.7c0-0.6,0.6-1.3,0.9-1.8l0,0
			c-0.6,0.4-1.1,1-1.6,1.6c-0.2,0.2-0.5,0.7-0.8,0.7c-0.5,0-0.6-0.7-0.6-1c0-0.7,0.6-1.8,1.2-2.3c0.1-0.1,0.2-0.1,0.4-0.1
			c0.6,0,0.6,0.2,0.6,0.2c0,0.4-1.3,1.5-1.3,1.7c0,0.1,0.1,0.1,0.1,0.1c0.1,0,0.2-0.1,0.2-0.1c0.8-1.1,2.7-2.3,3-2.3
			c0,0,0.1,0.1,0.2,0.2c0.1,0.2,0.1,0.3,0.2,0.6c0,0.4-1.3,1.2-1.3,1.9c0,0.1,0.1,0.2,0.2,0.2c0.2,0,0.7-0.4,0.9-0.5L67.9,69.7z"/>
	</g>
</g>
</svg>
