<?xml version="1.0" encoding="UTF-8"?><svg id="_レイヤー_1" xmlns="http://www.w3.org/2000/svg" viewBox="0 0 112 86"><defs><style>.cls-1{fill:#e299ba;}.cls-2{fill:#717171;}</style></defs><path class="cls-1" d="m79.64,52.61c.4-.1,1-.25,1.48-.97.48-.72.48-1.77-.14-2.55-.61-.76-2.02-1.16-3.64-.08-1.68,1.13-3.11,2.83-4.51,3.54.71-1.39,2.42-2.82,3.53-4.49,1.08-1.61.68-3.03-.08-3.63-.78-.62-1.83-.62-2.55-.15-.73.49-.88,1.08-.98,1.49-.1-.41-.25-1-.98-1.48-.72-.47-1.77-.48-2.55.14-.76.61-1.16,2.02-.08,3.64,1.11,1.66,2.8,3.08,3.52,4.45-1.38-.72-2.78-2.4-4.44-3.51-1.62-1.08-3.03-.67-3.64.09-.62.78-.62,1.83-.15,2.55.49.73,1.08.89,1.48.98-.4.1-.99.25-1.48.98-.47.72-.47,1.77.15,2.55.61.76,2.02,1.17,3.64.08,1.65-1.11,3.07-2.78,4.44-3.51-.72,1.38-2.41,2.8-3.52,4.46-1.08,1.61-.68,3.03.08,3.64.78.62,1.84.62,2.55.14.73-.48.88-1.07.98-1.48.09.4.24,1,.98,1.48.72.48,1.77.48,2.55-.15.76-.6,1.17-2.02.08-3.64-1.12-1.67-2.82-3.1-3.53-4.49,1.4.7,2.82,2.41,4.5,3.54,1.62,1.08,3.03.68,3.64-.08.62-.78.62-1.83.15-2.55-.49-.73-1.08-.88-1.48-.98Z"/><path class="cls-2" d="m72.03,38.08c-2.93,2.38-5.07,3.57-6.42,3.57-1.81,0-2.8-1.32-2.97-3.95-3.23,2.64-5.74,3.95-7.53,3.95s-3.16-.44-4.24-1.33c-1.18-.95-1.77-2.28-1.77-3.99,0-2.28,1.18-3.95,3.54-5.03.8-.36,2.46-.94,4.97-1.74,2.07-.65,3.7-1.34,4.9-2.06v-2.24c0-1.9-.37-3.28-1.11-4.14-1.06-1.24-2.27-1.87-3.64-1.87-.89,0-1.76.3-2.62.89-.93.67-1.39,1.44-1.39,2.28,0,.34.11.75.32,1.23l-4.4,2.15c-.13-.42-.19-.73-.19-.92,0-.95.69-2.12,2.06-3.51,1.07-1.08,2.18-1.96,3.32-2.66,1.5-.91,2.9-1.36,4.21-1.36,2.89,0,5.16,1.15,6.8,3.45.65.91.98,2.76.98,5.57v5.82c0,3.67.23,5.68.7,6.04.21.19.54.28.98.28.99,0,2.05-.47,3.16-1.42l.35.98Zm-9.52-1.55v-7.72c-.82.49-2.1,1.09-3.83,1.8-1.98.82-3.19,1.38-3.64,1.68-1.2.82-1.8,1.91-1.8,3.26,0,1.08.37,1.98,1.11,2.72.74.74,1.65,1.11,2.72,1.11.93,0,2.74-.95,5.44-2.85"/><path class="cls-2" d="m57.34,52.76c-1.08.05-2.36.07-3.35.07-4.37,0-6.6.22-9.31-1.77-2.18-1.6-16.16-16.41-18.01-17.59-2.45.1-1.84.01-2.73.01-.96,0-2.21-.05-3.75-.14v12.47c0,2.76.82,4.46,2.45,5.08.82.31,1.96.47,3.42.47h1.69v1.41H6.9v-1.41h1.26c2.31,0,3.87-.44,4.68-1.32.82-.88,1.23-2.48,1.23-4.81V14.17c0-2.21-.39-3.75-1.15-4.61-.77-.86-2.23-1.3-4.4-1.3h-1.62v-1.41c.96,0,3.12-.1,6.49-.29.82-.05,1.75-.1,2.81-.14,3.12-.14,6.22-.22,9.3-.22,6.56,0,11.55,1.23,14.96,3.68,3.22,2.33,4.83,5.48,4.83,9.44,0,2.93-.94,5.48-2.81,7.64-1.76,2.02-8.08,5.35-8.08,5.35,0,0,12.93,14.99,17.39,18,1.42.96,3.62.97,5.55,1.12v1.33Zm-19.01-32.97c0-5.21-1.94-8.76-5.8-10.63-2.14-1.03-5.02-1.55-8.65-1.55-1.59,0-2.81.05-3.68.14v24.19c.84.12,2.37.18,4.58.18,9.04,0,13.55-4.11,13.55-12.33"/><path class="cls-2" d="m107,27c-1.87.19-3.39,1.14-4.54,2.85-.58.87-1.11,1.89-1.59,3.06l-15.88,41.02c-2.11,5.26-4.28,7.89-6.49,7.89-.79,0-1.48-.23-2.05-.69-.65-.48-.97-1.1-.97-1.87,0-.89.4-1.56,1.19-2.02.31-.19,1.1-.48,2.38-.87,1.27-.38,2.12-.8,2.56-1.26.96-.99,8.06-19.5,8.06-19.5l-11.43-24.26c-.72-1.56-1.45-2.63-2.2-3.21-.86-.74-2.08-1.13-3.64-1.15v-1.34h14.82v1.34c-2.16.02-3.47.37-3.93,1.04-.48.7-.35,1.85.4,3.46l8.36,17.99,6.27-15.64c.7-1.73,1.05-3.09,1.05-4.07,0-.55-.1-.98-.29-1.3-.58-.91-2.02-1.41-4.32-1.48v-1.34h12.25v1.34Z"/></svg>